# xmcd CD database file
#
# Track frame offsets:
#	150
#	16408
#	30381
#
# Disc length: 719 seconds
#
# Revision: 0
# Processed by: cddbd v1.5.1PL0 Copyright (c) Steve Scherf et al.
# Submitted via: CDex 1.51
#
DISCID=1602cd03
DTITLE=Mr Boogiewoogie - Holy Boogie
DYEAR=1998
DGENRE=Blues
TTITLE0=Holy Boogie
TTITLE1=Bad Day
TTITLE2=If you went away
EXTD=YEAR: 1998
EXTT0=
EXTT1=
EXTT2=
PLAYORDER=
